<?xml version="1.0" encoding="utf-8" ?>
<svg baseProfile="full" height="200mm" version="1.1" viewBox="0,0,200,200" width="200mm" xmlns="http://www.w3.org/2000/svg" xmlns:ev="http://www.w3.org/2001/xml-events" xmlns:xlink="http://www.w3.org/1999/xlink"><defs /><rect fill="#fff5f7" height="200" width="200" x="0" y="0" /><text alignment-baseline="middle" fill="#833471" style="dominant-baseline: central; font-size:9.0px; font-family:Arial;" text-anchor="middle" x="100.0" y="100.0">2022</text><line stroke="#833471" stroke-width="0.3" x1="100.0" x2="100.0" y1="15.0" y2="10.0" /><path d="M 100.0 14.0 a86.0,86.0 0 0,1 42.46469731375804,11.215312516191453" fill="none" id="id37" stroke="none" /><text fill="#833471" style="font-size:6.75px; font-family:Arial;" text-anchor="middle"><textPath startOffset="22.20632615414155" xlink:href="#id37">一月</textPath></text><line stroke="#833471" stroke-width="0.3" x1="143.23703022742887" x2="145.7803849466894" y1="26.81831364943548" y2="22.513508569990506" /><path d="M 143.74570117128098 25.957352633546492 a86.0,86.0 0 0,1 28.547481713284135,27.462654790039103" fill="none" id="id38" stroke="none" /><text fill="#833471" style="font-size:6.75px; font-family:Arial;" text-anchor="middle"><textPath startOffset="19.985693538727396" xlink:href="#id38">二月</textPath></text><path d="M 117.45458315368197 88.32363383020206 l 15.328570647860479 -10.254155150435677 a39.44214672850361,39.44214672850361 0 0,0 0.3726406961734062,0.5675573456807559 l -15.50280797939181 9.988779740777249" fill="red" stroke="none" /><line stroke="#833471" stroke-width="0.3" x1="172.23445277983987" x2="176.4835382374775" y1="55.19839476539836" y2="52.563006222186495" /><path d="M 173.08426987136738 54.67131705675599 a86.0,86.0 0 0,1 12.851231095245387,41.99856678651699" fill="none" id="id39" stroke="none" /><text fill="#833471" style="font-size:6.75px; font-family:Arial;" text-anchor="middle"><textPath startOffset="22.20632615414155" xlink:href="#id39">三月</textPath></text><path d="M 118.73160827565052 90.50648371742162 l 16.611747233475768 -8.419132544431877 a39.6234244689209,39.6234244689209 0 0,0 0.3031003044490031,0.6110317183379107 l -16.75420755087818 8.131941237595017" fill="red" stroke="none" /><path d="M 119.61058180528143 92.48833698450437 l 17.14826536859477 -6.568494093045569 a39.36322737979687,39.36322737979687 0 0,0 0.23692053917016745,0.6348292554947934 l -17.258790496266567 6.272341700521442" fill="red" stroke="none" /><line stroke="#833471" stroke-width="0.3" x1="184.98032266829074" x2="189.97916517819016" y1="98.17113171792111" y2="98.06355123074" /><path d="M 185.9800911702706 98.14961562048488 a86.0,86.0 0 0,1 -9.607161424134198,41.387399972396054" fill="none" id="id40" stroke="none" /><text fill="#833471" style="font-size:6.75px; font-family:Arial;" text-anchor="middle"><textPath startOffset="21.466115282336823" xlink:href="#id40">四月</textPath></text><line stroke="#833471" stroke-width="0.3" x1="174.80103733775053" x2="179.2010983576182" y1="140.37084112569926" y2="142.7455964860345" /><path d="M 175.68104954172406 140.8457921977663 a86.0,86.0 0 0,1 -30.038265399797805,32.042727171017184" fill="none" id="id41" stroke="none" /><text fill="#833471" style="font-size:6.75px; font-family:Arial;" text-anchor="middle"><textPath startOffset="22.206326154141568" xlink:href="#id41">五月</textPath></text><line stroke="#833471" stroke-width="0.3" x1="143.8653032363475" x2="146.44561519142675" y1="172.8068346515853" y2="177.08958963109032" /><path d="M 144.38136562736335 173.6633856474863 a86.0,86.0 0 0,1 -40.68145358897372,12.25698825130547" fill="none" id="id42" stroke="none" /><text fill="#833471" style="font-size:6.75px; font-family:Arial;" text-anchor="middle"><textPath startOffset="21.466115282336833" xlink:href="#id42">六月</textPath></text><line stroke="#833471" stroke-width="0.3" x1="102.19456741930631" x2="102.32365962044197" y1="184.97166512339345" y2="189.96999836594603" /><path d="M 102.22038585953345 185.97133177190398 a86.0,86.0 0 0,1 -42.740103519485714,-10.115201625700543" fill="none" id="id43" stroke="none" /><text fill="#833471" style="font-size:6.75px; font-family:Arial;" text-anchor="middle"><textPath startOffset="22.20632615414155" xlink:href="#id43">七月</textPath></text><path d="M 90.10565033884886 118.52300852407294 l -29.683048983453407 55.569025572218784 a84.0,84.0 0 0,0 -1.2695087525254332,-0.6922373929609367 l 30.635180547847483 -55.04984752749809" fill="red" stroke="none" /><line stroke="#833471" stroke-width="0.3" x1="58.666819895761336" x2="56.23545636021788" y1="174.27360380694188" y2="178.64263932499728" /><path d="M 58.180547188652646 175.14741091055294 a86.0,86.0 0 0,1 -31.652253787137756,-30.449443065178592" fill="none" id="id44" stroke="none" /><text fill="#833471" style="font-size:6.75px; font-family:Arial;" text-anchor="middle"><textPath startOffset="22.20632615414155" xlink:href="#id44">八月</textPath></text><line stroke="#833471" stroke-width="0.3" x1="26.63291911575756" x2="22.317208475507996" y1="142.92168965132927" y2="145.44649492493687" /><path d="M 25.769776987707644 143.4266507060508 a86.0,86.0 0 0,1 -11.730757126820373,-40.83630448921669" fill="none" id="id45" stroke="none" /><text fill="#833471" style="font-size:6.75px; font-family:Arial;" text-anchor="middle"><textPath startOffset="21.46611528233685" xlink:href="#id45">九月</textPath></text><path d="M 80.32549172779594 107.34259656027581 l -25.31646137987793 9.448193554543293 a48.02205725408345,48.02205725408345 0 0,0 -0.2823599527379704,-0.7769333211606297 l 25.47534559362112 -9.011012436376546" fill="red" stroke="none" /><line stroke="#833471" stroke-width="0.3" x1="15.007084014347285" x2="10.007500721073583" y1="101.09737516637583" y2="101.16192664675087" /><path d="M 14.007167355692545 101.11028546245083 a86.0,86.0 0 0,1 10.666146001902534,-42.60595125391555" fill="none" id="id46" stroke="none" /><text fill="#833471" style="font-size:6.75px; font-family:Arial;" text-anchor="middle"><textPath startOffset="22.20632615414155" xlink:href="#id46">十月</textPath></text><path d="M 79.62865764111835 94.90015583598534 l -60.06096326146238 -15.035904241259965 a82.91443873804457,82.91443873804457 0 0,0 0.3585207227775777,-1.3815265946691213 l 59.7932462068145 16.06752726147795" fill="red" stroke="none" /><line stroke="#833471" stroke-width="0.3" x1="26.266209847984243" x2="21.928928074336255" y1="57.71137044288968" y2="55.22380399835378" /><path d="M 25.398753493254645 57.2138571539825 a86.0,86.0 0 0,1 29.58750427330803,-30.4925239686951" fill="none" id="id47" stroke="none" /><text fill="#833471" style="font-size:6.75px; font-family:Arial;" text-anchor="middle"><textPath startOffset="21.46611528233685" xlink:href="#id47">十一月</textPath></text><path d="M 82.7489923806493 88.02491185347247 l -25.700175489149974 -17.840225548250068 a52.28534269886682,52.28534269886682 0 0,0 0.5195852947849019,-0.7349165517036387 l 25.389277574561195 18.279968600285493" fill="red" stroke="none" /><path d="M 86.93701828274178 83.55741782278169 l -11.39360939567337 -14.341316771191705 a39.31632336995722,39.31632336995722 0 0,0 0.5335177243458318,-0.4164190463698369 l 11.145059116168111 14.535314206784763" fill="red" stroke="none" /><path d="M 87.80319425747018 82.90503203632743 l -29.162266789887802 -40.87365389307259 a71.21049080516224,71.21049080516224 0 0,0 1.0039623267796487,-0.7033397689147403 l 28.454373323524493 41.36957850475128" fill="red" stroke="none" /><line stroke="#833471" stroke-width="0.3" x1="56.76296977257108" x2="54.21961505331056" y1="26.818313649435495" y2="22.513508569990535" /><path d="M 56.25429882871898 25.957352633546506 a86.0,86.0 0 0,1 42.26535254187918,-11.944610805530505" fill="none" id="id48" stroke="none" /><text fill="#833471" style="font-size:6.75px; font-family:Arial;" text-anchor="middle"><textPath startOffset="22.20632615414155" xlink:href="#id48">十二月</textPath></text></svg>