<?xml version="1.0" encoding="utf-8" ?>
<svg baseProfile="full" height="200mm" version="1.1" viewBox="0,0,200,200" width="200mm" xmlns="http://www.w3.org/2000/svg" xmlns:ev="http://www.w3.org/2001/xml-events" xmlns:xlink="http://www.w3.org/1999/xlink"><defs /><rect fill="#fff5f7" height="200" width="200" x="0" y="0" /><text alignment-baseline="middle" fill="#833471" style="dominant-baseline: central; font-size:9.0px; font-family:Arial;" text-anchor="middle" x="100.0" y="100.0">2024</text><line stroke="#833471" stroke-width="0.3" x1="100.0" x2="100.0" y1="15.0" y2="10.0" /><path d="M 100.0 14.0 a86.0,86.0 0 0,1 42.35913384403234,11.155469271406648" fill="none" id="id61" stroke="none" /><text fill="#833471" style="font-size:6.75px; font-family:Arial;" text-anchor="middle"><textPath startOffset="22.145653131862478" xlink:href="#id61">一月</textPath></text><path d="M 101.80034050326958 79.07731436759882 l 1.810329984474047 -21.03877854620957 a42.116521905113395,42.116521905113395 0 0,0 0.7197922904976126,0.0681650782753467 l -2.1712218383566726 21.00460171242904" fill="red" stroke="none" /><path d="M 104.64783097203109 79.52079915486377 l 4.670366321193011 -20.57849575159466 a42.10182003933626,42.10182003933626 0 0,0 0.7034369009920411,0.16600919327474195 l -5.022935375924937 20.49529041467369" fill="red" stroke="none" /><path d="M 109.06512990194946 81.05736502329252 l 9.10457002606805 -19.025049667141637 a42.09136577362364,42.09136577362364 0 0,0 0.6490884476356877,0.31750168597551903 l -9.429818722965805 18.865954231068898" fill="red" stroke="none" /><line stroke="#833471" stroke-width="0.3" x1="143.13028292997686" x2="145.6673583964461" y1="26.7553504044142" y2="22.446841604673864" /><path d="M 143.63769802327073 25.89364864446614 a86.0,86.0 0 0,1 29.32050498858742,28.57503671076992" fill="none" id="id62" stroke="none" /><text fill="#833471" style="font-size:6.75px; font-family:Arial;" text-anchor="middle"><textPath startOffset="20.669276256404974" xlink:href="#id62">二月</textPath></text><path d="M 111.27062007382361 82.28071324371311 l 11.33920081458755 -17.827107071726083 a42.12778316956914,42.12778316956914 0 0,0 0.6068695090455284,0.39336548377391123 l -11.643555955890086 17.629827746248274" fill="red" stroke="none" /><line stroke="#833471" stroke-width="0.3" x1="172.87174338648825" x2="177.1583165268699" y1="56.24261187166439" y2="53.66864786411523" /><path d="M 173.72905801456457 55.72781907015455 a86.0,86.0 0 0,1 12.242430191666344,42.057860355516425" fill="none" id="id63" stroke="none" /><text fill="#833471" style="font-size:6.75px; font-family:Arial;" text-anchor="middle"><textPath startOffset="22.145653131862474" xlink:href="#id63">三月</textPath></text><path d="M 119.31412917781788 91.75594674310238 l 38.675857300806015 -16.508423673080163 a63.05175371042477,63.05175371042477 0 0,0 0.4163642236327056,0.9991225646449868 l -38.9535473689752 15.842068598993901" fill="red" stroke="none" /><line stroke="#833471" stroke-width="0.3" x1="184.99686870605535" x2="189.99668451229388" y1="99.2704041080226" y2="99.22748670261217" /><path d="M 185.99683186730306 99.26182062694052 a86.0,86.0 0 0,1 -10.086455211305974,41.156179273409016" fill="none" id="id64" stroke="none" /><text fill="#833471" style="font-size:6.75px; font-family:Arial;" text-anchor="middle"><textPath startOffset="21.40746469413373" xlink:href="#id64">四月</textPath></text><path d="M 119.0197475246899 108.90220220490707 l 19.094075472797037 8.936991437659328 a42.082066647216195,42.082066647216195 0 0,0 -0.3118496399152487,0.6516458076637044 l -18.937846574921874 -9.263449747388135" fill="red" stroke="none" /><line stroke="#833471" stroke-width="0.3" x1="174.33088141563837" x2="178.70328620479359" y1="141.23008692659167" y2="143.65538615756765" /><path d="M 175.20536237346943 141.71514677278685 a86.0,86.0 0 0,1 -30.301960400862466,31.63118572779886" fill="none" id="id65" stroke="none" /><text fill="#833471" style="font-size:6.75px; font-family:Arial;" text-anchor="middle"><textPath startOffset="22.145653131862474" xlink:href="#id65">五月</textPath></text><path d="M 111.8722381534696 117.32195027204791 l 7.18572706354341 10.484190533764849 a33.71034714632235,33.71034714632235 0 0,0 -0.4801376171906479,0.32305801670690326 l -7.004693158255759 -10.605998224528873" fill="red" stroke="none" /><line stroke="#833471" stroke-width="0.3" x1="143.1302829299769" x2="145.6673583964461" y1="173.24464959558577" y2="177.55315839532614" /><path d="M 143.63769802327073 174.10635135553383 a86.0,86.0 0 0,1 -40.685524379131806,11.842963189579606" fill="none" id="id66" stroke="none" /><text fill="#833471" style="font-size:6.75px; font-family:Arial;" text-anchor="middle"><textPath startOffset="21.407464694133747" xlink:href="#id66">六月</textPath></text><path d="M 107.74402155503746 119.51999308798841 l 7.776412896047435 19.60164042692356 a42.087837844506886,42.087837844506886 0 0,0 -0.6738618330951338,0.2606642332421226 l -7.438778800458773 -19.732244548303722" fill="red" stroke="none" /><path d="M 103.94208987418118 120.62667999033965 l 2.380291953044421 12.454693313968662 a33.68010943670218,33.68010943670218 0 0,0 -0.5688173803522645,0.10365747500407496 l -2.1661398391411 -12.4937189629041" fill="red" stroke="none" /><line stroke="#833471" stroke-width="0.3" x1="101.45913802915013" x2="101.54496967792366" y1="184.9874750549273" y2="189.98673829345242" /><path d="M 101.47630435890484 185.9873277026323 a86.0,86.0 0 0,1 -42.54439059252881,-10.42667462771756" fill="none" id="id67" stroke="none" /><text fill="#833471" style="font-size:6.75px; font-family:Arial;" text-anchor="middle"><textPath startOffset="22.145653131862474" xlink:href="#id67">七月</textPath></text><path d="M 96.76829788921471 120.74984581791261 l -1.9689944180422148 12.642356625121804 a33.79476924586929,33.79476924586929 0 0,0 -0.5724552238041039,-0.09419728923220255 l 2.1857271448993814 -12.606693337393933" fill="red" stroke="none" /><path d="M 95.35216902796893 120.47920084513623 l -4.662490772559125 20.543794631177548 a42.0662364472679,42.0662364472679 0 0,0 -0.7028423705962628,-0.16586888572016195 l 5.014465296895276 -20.460729601811156" fill="red" stroke="none" /><line stroke="#833471" stroke-width="0.3" x1="58.13341422392154" x2="55.670673884152215" y1="173.97424548756322" y2="178.32567169271397" /><path d="M 57.64086615596767 174.84453072859336 a86.0,86.0 0 0,1 -31.369924170532244,-30.572349798747886" fill="none" id="id68" stroke="none" /><text fill="#833471" style="font-size:6.75px; font-family:Arial;" text-anchor="middle"><textPath startOffset="22.145653131862474" xlink:href="#id68">八月</textPath></text><path d="M 88.72937992617639 117.7192867562869 l -8.203326943581688 12.896992491699303 a36.28486140840804,36.28486140840804 0 0,0 -0.5226996146479328,-0.3388075751372068 l 8.423512190486631 -12.7542710748582" fill="red" stroke="none" /><path d="M 85.60350026404147 115.28858382429668 l -7.625936067698381 8.098479835242502 a32.123860685501796,32.123860685501796 0 0,0 -0.398224990317415,-0.3814905325103592 l 7.763833543881109 -7.9663771724265615" fill="red" stroke="none" /><path d="M 81.99639281039703 110.81064883170646 l -15.397631508852763 9.245835311178904 a38.96030419240883,38.96030419240883 0 0,0 -0.33937447133966253,-0.5763320466809265 l 15.554079690322196 -8.98015209620442" fill="red" stroke="none" /><line stroke="#833471" stroke-width="0.3" x1="26.387840678322732" x2="22.057713659400548" y1="142.50000000000003" y2="145.00000000000006" /><path d="M 25.521815274538298 143.00000000000003 a86.0,86.0 0 0,1 -11.493303480769221,-40.785679425670985" fill="none" id="id69" stroke="none" /><text fill="#833471" style="font-size:6.75px; font-family:Arial;" text-anchor="middle"><textPath startOffset="21.40746469413373" xlink:href="#id69">九月</textPath></text><line stroke="#833471" stroke-width="0.3" x1="15.003131293944662" x2="10.003315487706104" y1="100.72959589197737" y2="100.7725132973878" /><path d="M 14.003168132696942 100.73817937305945 a86.0,86.0 0 0,1 10.791469493833604,-42.453326145846276" fill="none" id="id70" stroke="none" /><text fill="#833471" style="font-size:6.75px; font-family:Arial;" text-anchor="middle"><textPath startOffset="22.145653131862435" xlink:href="#id70">十月</textPath></text><path d="M 79.407916724674 95.88100663000787 l -20.720619831085873 -4.1447042810202985 a42.13108278724725,42.13108278724725 0 0,0 0.147944880484749,-0.7079698097691441 l 20.646417239776756 4.4997905420748525" fill="red" stroke="none" /><line stroke="#833471" stroke-width="0.3" x1="26.387840678322718" x2="22.05771365940052" y1="57.5" y2="55.0" /><path d="M 25.521815274538284 57.0 a86.0,86.0 0 0,1 29.574782752854787,-30.346332500585742" fill="none" id="id71" stroke="none" /><text fill="#833471" style="font-size:6.75px; font-family:Arial;" text-anchor="middle"><textPath startOffset="21.40746469413373" xlink:href="#id71">十一月</textPath></text><path d="M 83.64595745247001 86.82634096563983 l -16.428831603376324 -13.233903803710502 a42.096035592925034,42.096035592925034 0 0,0 0.45815156343842683,-0.5588704129926872 l 16.19923322069927 13.513976498401684" fill="red" stroke="none" /><path d="M 85.34317274990677 84.96080404539775 l -20.551764765554402 -21.087921161116007 a50.44614497478622,50.44614497478622 0 0,0 0.6253580723316554,-0.5990788871218279 l 20.186734207357446 21.437612178543404" fill="red" stroke="none" /><line stroke="#833471" stroke-width="0.3" x1="56.869717070023135" x2="54.33264160355391" y1="26.7553504044142" y2="22.446841604673864" /><path d="M 56.362301976729285 25.89364864446614 a86.0,86.0 0 0,1 42.16139366436587,-11.88097634709845" fill="none" id="id72" stroke="none" /><text fill="#833471" style="font-size:6.75px; font-family:Arial;" text-anchor="middle"><textPath startOffset="22.145653131862474" xlink:href="#id72">十二月</textPath></text><path d="M 91.26138138417902 80.90454125486306 l -26.215855847462933 -57.286376235410835 a84.0,84.0 0 0,0 1.3163463885775295,-0.5887849963606175 l 25.228596056029787 57.7279649826813" fill="red" stroke="none" /></svg>