<?xml version="1.0" encoding="utf-8" ?>
<svg baseProfile="full" height="200mm" version="1.1" viewBox="0,0,200,200" width="200mm" xmlns="http://www.w3.org/2000/svg" xmlns:ev="http://www.w3.org/2001/xml-events" xmlns:xlink="http://www.w3.org/1999/xlink"><defs /><rect fill="#fff5f7" height="200" width="200" x="0" y="0" /><text alignment-baseline="middle" fill="#833471" style="dominant-baseline: central; font-size:9.0px; font-family:Arial;" text-anchor="middle" x="100.0" y="100.0">2023</text><line stroke="#833471" stroke-width="0.3" x1="100.0" x2="100.0" y1="15.0" y2="10.0" /><path d="M 100.0 14.0 a86.0,86.0 0 0,1 42.46469731375804,11.215312516191453" fill="none" id="id49" stroke="none" /><text fill="#833471" style="font-size:6.75px; font-family:Arial;" text-anchor="middle"><textPath startOffset="22.20632615414155" xlink:href="#id49">一月</textPath></text><path d="M 102.52436894288641 79.15227682838746 l 5.5908084148232025 -46.17218353371293 a67.50943636513057,67.50943636513057 0 0,0 1.1524351725541009,0.14961916050843738 l -6.384758315885149 46.06910605004036" fill="red" stroke="none" /><line stroke="#833471" stroke-width="0.3" x1="143.23703022742887" x2="145.7803849466894" y1="26.81831364943548" y2="22.513508569990506" /><path d="M 143.74570117128098 25.957352633546492 a86.0,86.0 0 0,1 28.547481713284135,27.462654790039103" fill="none" id="id50" stroke="none" /><text fill="#833471" style="font-size:6.75px; font-family:Arial;" text-anchor="middle"><textPath startOffset="19.985693538727396" xlink:href="#id50">二月</textPath></text><line stroke="#833471" stroke-width="0.3" x1="172.23445277983987" x2="176.4835382374775" y1="55.19839476539836" y2="52.563006222186495" /><path d="M 173.08426987136738 54.67131705675599 a86.0,86.0 0 0,1 12.851231095245387,41.99856678651699" fill="none" id="id51" stroke="none" /><text fill="#833471" style="font-size:6.75px; font-family:Arial;" text-anchor="middle"><textPath startOffset="22.20632615414155" xlink:href="#id51">三月</textPath></text><line stroke="#833471" stroke-width="0.3" x1="184.98032266829074" x2="189.97916517819016" y1="98.17113171792111" y2="98.06355123074" /><path d="M 185.9800911702706 98.14961562048488 a86.0,86.0 0 0,1 -9.607161424134198,41.387399972396054" fill="none" id="id52" stroke="none" /><text fill="#833471" style="font-size:6.75px; font-family:Arial;" text-anchor="middle"><textPath startOffset="21.466115282336823" xlink:href="#id52">四月</textPath></text><line stroke="#833471" stroke-width="0.3" x1="174.80103733775053" x2="179.2010983576182" y1="140.37084112569926" y2="142.7455964860345" /><path d="M 175.68104954172406 140.8457921977663 a86.0,86.0 0 0,1 -30.038265399797805,32.042727171017184" fill="none" id="id53" stroke="none" /><text fill="#833471" style="font-size:6.75px; font-family:Arial;" text-anchor="middle"><textPath startOffset="22.206326154141568" xlink:href="#id53">五月</textPath></text><path d="M 115.80600337817218 113.82643327865902 l 27.055331031696067 23.666876464063964 a56.945959144247645,56.945959144247645 0 0,0 -0.6517360632670163,0.7322323760870619 l -26.643936118780715 -24.12908300989189" fill="red" stroke="none" /><path d="M 114.29624159901734 115.38237550388516 l 42.88872479705202 46.14712651165547 a84.0,84.0 0 0,0 -1.0676018021325442,0.9752289336536681 l -42.088023445452606 -46.878548211895726" fill="red" stroke="none" /><line stroke="#833471" stroke-width="0.3" x1="143.8653032363475" x2="146.44561519142675" y1="172.8068346515853" y2="177.08958963109032" /><path d="M 144.38136562736335 173.6633856474863 a86.0,86.0 0 0,1 -40.68145358897372,12.25698825130547" fill="none" id="id54" stroke="none" /><text fill="#833471" style="font-size:6.75px; font-family:Arial;" text-anchor="middle"><textPath startOffset="21.466115282336833" xlink:href="#id54">六月</textPath></text><line stroke="#833471" stroke-width="0.3" x1="102.19456741930631" x2="102.32365962044197" y1="184.97166512339345" y2="189.96999836594603" /><path d="M 102.22038585953345 185.97133177190398 a86.0,86.0 0 0,1 -42.740103519485714,-10.115201625700543" fill="none" id="id55" stroke="none" /><text fill="#833471" style="font-size:6.75px; font-family:Arial;" text-anchor="middle"><textPath startOffset="22.20632615414155" xlink:href="#id55">七月</textPath></text><path d="M 95.86986931433489 120.58985236759428 l -7.6028662042637105 37.902406638048724 a59.657418479199244,59.657418479199244 0 0,0 -1.0051097165248069,-0.21063051359650223 l 8.254167382217904 -37.76592014372568" fill="red" stroke="none" /><path d="M 94.81253420990036 120.34920634021253 l -8.336080701740624 32.700480953942886 a54.74628418189348,54.74628418189348 0 0,0 -0.9111595020061901,-0.240645505879679 l 8.897730646558301 -32.552144098759626" fill="red" stroke="none" /><line stroke="#833471" stroke-width="0.3" x1="58.666819895761336" x2="56.23545636021788" y1="174.27360380694188" y2="178.64263932499728" /><path d="M 58.180547188652646 175.14741091055294 a86.0,86.0 0 0,1 -31.652253787137756,-30.449443065178592" fill="none" id="id56" stroke="none" /><text fill="#833471" style="font-size:6.75px; font-family:Arial;" text-anchor="middle"><textPath startOffset="22.20632615414155" xlink:href="#id56">八月</textPath></text><path d="M 88.24862548938628 117.40417183066458 l -18.67677462636987 27.660916988591627 a54.37586312133321,54.37586312133321 0 0,0 -0.771213165398913,-0.5304474474584525 l 19.150144676391673 -27.33532875176807" fill="red" stroke="none" /><path d="M 87.07902340077011 116.55440617244103 l -20.630333206199648 26.431664258921586 a54.52974088320959,54.52974088320959 0 0,0 -0.7349635514788775,-0.5838994953677024 l 21.082254250395884 -26.07263084954875" fill="red" stroke="none" /><path d="M 85.18274418774928 114.88116024355367 l -23.720859201765798 23.823163436538646 a54.618778642211694,54.618778642211694 0 0,0 -0.660521470676483,-0.6691047625178418 l 24.12742129749782 -23.411318180040137" fill="red" stroke="none" /><line stroke="#833471" stroke-width="0.3" x1="26.63291911575756" x2="22.317208475507996" y1="142.92168965132927" y2="145.44649492493687" /><path d="M 25.769776987707644 143.4266507060508 a86.0,86.0 0 0,1 -11.730757126820373,-40.83630448921669" fill="none" id="id57" stroke="none" /><text fill="#833471" style="font-size:6.75px; font-family:Arial;" text-anchor="middle"><textPath startOffset="21.46611528233685" xlink:href="#id57">九月</textPath></text><path d="M 79.50377843672027 104.57218783832718 l -54.5953536947788 12.178840447336333 a76.93725770628797,76.93725770628797 0 0,0 -0.2772157886786527,-1.2950598748185718 l 54.79690352218189 -11.237266753101597" fill="red" stroke="none" /><path d="M 79.29508885075956 103.50808413554451 l -55.20047203461624 9.352752051114674 a76.98719571271702,76.98719571271702 0 0,0 -0.2101319521379475,-1.3084918665496301 l 55.35328574111548 -8.40118095487183" fill="red" stroke="none" /><line stroke="#833471" stroke-width="0.3" x1="15.007084014347285" x2="10.007500721073583" y1="101.09737516637583" y2="101.16192664675087" /><path d="M 14.007167355692545 101.11028546245083 a86.0,86.0 0 0,1 10.666146001902534,-42.60595125391555" fill="none" id="id58" stroke="none" /><text fill="#833471" style="font-size:6.75px; font-family:Arial;" text-anchor="middle"><textPath startOffset="22.20632615414155" xlink:href="#id58">十月</textPath></text><path d="M 79.16333360222342 97.38593545837743 l -55.50649061380823 -6.963568268240097 a76.94159260592446,76.94159260592446 0 0,0 0.1761742672073826,-1.3127029220493387 l 55.378400347543014 7.917989532354096" fill="red" stroke="none" /><line stroke="#833471" stroke-width="0.3" x1="26.266209847984243" x2="21.928928074336255" y1="57.71137044288968" y2="55.22380399835378" /><path d="M 25.398753493254645 57.2138571539825 a86.0,86.0 0 0,1 29.58750427330803,-30.4925239686951" fill="none" id="id59" stroke="none" /><text fill="#833471" style="font-size:6.75px; font-family:Arial;" text-anchor="middle"><textPath startOffset="21.46611528233685" xlink:href="#id59">十一月</textPath></text><path d="M 84.07557802195018 86.31012108654704 l -42.43636346471098 -36.48161786719485 a76.96207096165301,76.96207096165301 0 0,0 0.8722666230844188,-0.9971515367176658 l 41.80210497804871 37.20668496011546" fill="red" stroke="none" /><path d="M 85.57189188830299 84.74124197986013 l -38.50275374220673 -40.71942058606225 a77.04046090636339,77.04046090636339 0 0,0 0.9714146036578866,-0.9028240055119646 l 37.79613125475398 41.37614917764886" fill="red" stroke="none" /><path d="M 87.80319425747018 82.90503203632743 l -32.67225099307282 -45.79322617888971 a77.25384919119134,77.25384919119134 0 0,0 1.0891647187053233,-0.7630294893848389 l 31.87915513478384 46.34884051103849" fill="red" stroke="none" /><line stroke="#833471" stroke-width="0.3" x1="56.76296977257108" x2="54.21961505331056" y1="26.818313649435495" y2="22.513508569990535" /><path d="M 56.25429882871898 25.957352633546506 a86.0,86.0 0 0,1 42.26535254187918,-11.944610805530505" fill="none" id="id60" stroke="none" /><text fill="#833471" style="font-size:6.75px; font-family:Arial;" text-anchor="middle"><textPath startOffset="22.20632615414155" xlink:href="#id60">十二月</textPath></text><path d="M 89.63071344664047 81.73862282372117 l -27.663539470419924 -48.71833039820319 a77.02452260233879,77.02452260233879 0 0,0 1.1585805352764085,-0.6447488135127953 l 26.82083484607147 49.18729460927617" fill="red" stroke="none" /><path d="M 91.90106846888425 80.62456947434976 l -21.581927433226436 -51.63139532487142 a76.96052693574468,76.96052693574468 0 0,0 1.2266633223986512,-0.5003867688881682 l 20.689980241239404 51.995242979943164" fill="red" stroke="none" /></svg>